<svg width="488" height="488" viewBox="0 0 488 488" fill="none" xmlns="http://www.w3.org/2000/svg" xmlns:xlink="http://www.w3.org/1999/xlink">
<g clip-path="url(#clip0)">
<circle cx="239.5" cy="286.5" r="136.5" fill="#000000"/>
<circle cx="239.5" cy="286.5" r="136.5" fill="url(#pattern0)"/>
<path d="M480.5 151.65C478.5 150.55 431.7 126.25 353.7 111.55L350.7 98.75C342.9 65.25 313.4 41.75 278.9 41.75H208.8C174.4 41.75 144.9 65.15 137 98.75L134 111.55C56 126.15 9.2 150.55 7.2 151.65C2.8 153.95 0 158.55 0 163.55V322.55C0 386.25 51.8 438.15 115.6 438.15C123.1 438.15 129.1 432.15 129.1 424.65C129.1 417.15 123.1 411.15 115.6 411.15C66.8 411.15 27 371.45 27 322.55V172.05C43.2 164.65 86 147.15 147.5 136.55C152.8 135.65 157.1 131.55 158.3 126.35L163.3 104.85C168.3 83.65 186.9 68.75 208.8 68.75H278.9C300.7 68.75 319.4 83.55 324.4 104.85L329.4 126.35C330.6 131.65 334.9 135.65 340.2 136.55C401.5 147.15 444.4 164.65 460.7 172.05V322.55C460.7 371.35 421 411.15 372.1 411.15C364.6 411.15 358.6 417.15 358.6 424.65C358.6 432.15 364.6 438.15 372.1 438.15C435.8 438.15 487.7 386.35 487.7 322.55V163.55C487.7 158.55 485 153.95 480.5 151.65Z" fill="black"/>
<path d="M480.5 151.65C478.5 150.55 431.7 126.25 353.7 111.55L350.7 98.75C342.9 65.25 313.4 41.75 278.9 41.75H208.8C174.4 41.75 144.9 65.15 137 98.75L134 111.55C56 126.15 9.2 150.55 7.2 151.65C2.8 153.95 0 158.55 0 163.55V322.55C0 386.25 51.8 438.15 115.6 438.15C123.1 438.15 129.1 432.15 129.1 424.65C129.1 417.15 123.1 411.15 115.6 411.15C66.8 411.15 27 371.45 27 322.55V172.05C43.2 164.65 86 147.15 147.5 136.55C152.8 135.65 157.1 131.55 158.3 126.35L163.3 104.85C168.3 83.65 186.9 68.75 208.8 68.75H278.9C300.7 68.75 319.4 83.55 324.4 104.85L329.4 126.35C330.6 131.65 334.9 135.65 340.2 136.55C401.5 147.15 444.4 164.65 460.7 172.05V322.55C460.7 371.35 421 411.15 372.1 411.15C364.6 411.15 358.6 417.15 358.6 424.65C358.6 432.15 364.6 438.15 372.1 438.15C435.8 438.15 487.7 386.35 487.7 322.55V163.55C487.7 158.55 485 153.95 480.5 151.65Z" fill="url(#pattern1)"/>
<path d="M44.2 124.05C45.6 124.05 47 123.85 48.4 123.35C62.6 118.65 77.5 114.45 92.7 110.85C100 109.15 104.4 101.85 102.7 94.65C101 87.35 93.7 82.95 86.5 84.65C70.6 88.45 54.9 92.85 39.9 97.75C32.8 100.05 29 107.75 31.3 114.75C33.3 120.45 38.6 124.05 44.2 124.05Z" fill="black"/>
<path d="M44.2 124.05C45.6 124.05 47 123.85 48.4 123.35C62.6 118.65 77.5 114.45 92.7 110.85C100 109.15 104.4 101.85 102.7 94.65C101 87.35 93.7 82.95 86.5 84.65C70.6 88.45 54.9 92.85 39.9 97.75C32.8 100.05 29 107.75 31.3 114.75C33.3 120.45 38.6 124.05 44.2 124.05Z" fill="url(#pattern2)"/>
</g>
<defs>
<pattern id="pattern0" patternContentUnits="objectBoundingBox" width="1" height="1">
<use xlink:href="#image0" transform="translate(-0.166667) scale(0.000833333)"/>
</pattern>
<pattern id="pattern1" patternContentUnits="objectBoundingBox" width="1" height="1">
<use xlink:href="#image0" transform="translate(-0.0418631) scale(0.000677329 0.000833333)"/>
</pattern>
<pattern id="pattern2" patternContentUnits="objectBoundingBox" width="1" height="1">
<use xlink:href="#image0" transform="translate(0 -0.1831) scale(0.000625 0.0011385)"/>
</pattern>
<clipPath id="clip0">
<rect width="487.7" height="487.7" fill="white"/>
</clipPath>
<image id="image0" width="1600" height="1200" xlink:href="https://source.unsplash.com/1200x900/"/>
</defs>
</svg>
